:SAMPLES-PER-SECOND 30
:FRAME-RANGE 1-668
:FULLY-SPECIFIED
:DEGREES
585
root  3.5608 39.143 -20.781 -174.839 -57.9796 173.27
RightUpLeg  5.59857 -7.82426 0.209445
RightLeg  13.5365 -8.78247 0.626912
RightFoot  -20.0813 -0.0423622 1.22457
RightToes  -1.33073e-015 0 -3.6325e-017
Spine  3.35711 2.5318 11.3876
Spine1  3.19341 3.46575 -1.75013
HEad  -3.52647 52.0142 -11.7938
LeftShoulder1  0.878337 0.917661 -27.8376
LeftArm  -24.5923 10.2966 -11.5198
LeftForeArm  -8.45255 -8.85112 -11.879
LeftHand  0.0472114 3.31976 -3.82745
RightShoulder  9.67361 12.9569 51.4409
RightArm  -7.35081 4.06049 8.79355
RightForeArm  25.3972 -7.66253 14.8409
RightHand  -0.143315 3.61745 -2.10082
LeftUpLeg  -24.0833 7.51879 -2.39668
LeftLeg  33.1937 -0.0427061 0.312171
LeftFoot  -1.91824 1.0093 -12.0729
LeftToes  -2.73175e-012 1.00346e-010 -4.28452e-011
586
root  3.42574 39.2679 -21.2834 -173.172 -56.6864 171.91
RightUpLeg  6.66005 -7.64591 -0.358235
RightLeg  11.2404 -7.82845 1.10966
RightFoot  -19.3838 -0.0639997 0.955893
RightToes  -1.33073e-015 0 -3.6325e-017
Spine  3.60282 2.99082 10.8471
Spine1  2.75991 4.05755 -3.03181
HEad  -2.50165 50.4468 -11.6855
LeftShoulder1  0.812588 1.15722 -28.5159
LeftArm  -20.2873 13.2136 -12.9601
LeftForeArm  -7.65862 -10.8026 -11.7257
LeftHand  0.050256 2.71413 -2.91
RightShoulder  9.84381 13.2672 51.3765
RightArm  -5.43853 4.3059 9.24058
RightForeArm  25.1225 -6.20488 15.2838
RightHand  -0.152026 3.6989 -2.19871
LeftUpLeg  -23.547 9.09107 -6.41872
LeftLeg  26.4252 -0.991041 -0.207345
LeftFoot  -1.83671 1.12153 -13.3113
LeftToes  -2.73175e-012 1.00346e-010 -4.28452e-011
587
root  3.24685 39.3295 -21.8026 -172.291 -55.4355 171.419
RightUpLeg  7.80763 -7.34287 -0.479632
RightLeg  9.07818 -6.94387 1.5803
RightFoot  -18.8423 -0.0893356 0.582364
RightToes  -1.33073e-015 0 -3.6325e-017
Spine  3.69742 3.33011 10.4996
Spine1  2.6068 4.51008 -3.95742
HEad  -1.84776 48.3092 -11.8294
LeftShoulder1  0.781698 1.29866 -29.3503
LeftArm  -14.5242 16.4197 -14.6579
LeftForeArm  -9.82279 -12.9098 -11.3826
LeftHand  0.04752 2.56178 -2.59598
RightShoulder  10.0908 13.7262 51.2616
RightArm  -3.33772 4.72442 9.80004
RightForeArm  25.0245 -5.10196 15.657
RightHand  -0.153226 3.7535 -2.20449
LeftUpLeg  -22.6809 11.3099 -9.95159
LeftLeg  19.1823 -1.96815 -0.44096
LeftFoot  -1.40251 1.2561 -14.2901
LeftToes  -2.73175e-012 1.00346e-010 -4.28452e-011
588
root  3.02578 39.333 -22.3578 -172.003 -54.1628 171.535
RightUpLeg  8.98728 -6.96377 -0.276556
RightLeg  7.27537 -5.99529 1.98159
RightFoot  -18.4662 -0.116812 0.130607
RightToes  -1.33073e-015 0 -3.6325e-017
Spine  3.8246 3.51945 10.2622
Spine1  2.56066 4.85137 -4.79045
HEad  -1.55487 45.6915 -11.7348
LeftShoulder1  0.726276 1.482 -29.8281
LeftArm  -9.15454 19.7186 -16.9798
LeftForeArm  -11.8516 -14.2997 -11.1166
LeftHand  0.0533336 2.32932 -2.5679
RightShoulder  10.3865 14.1691 51.4346
RightArm  -1.10468 5.29745 10.3239
RightForeArm  24.765 -4.05373 15.9951
RightHand  -0.132032 3.92477 -1.91118
LeftUpLeg  -21.3423 10.3669 -11.4615
LeftLeg  12.2989 1.01854 -1.00876
LeftFoot  -0.927733 1.31755 -14.3375
LeftToes  -2.73175e-012 1.00346e-010 -4.28452e-011
589
root  2.74981 39.268 -22.9818 -172.015 -52.9075 172.013
RightUpLeg  10.051 -6.57515 0.152291
RightLeg  6.08369 -5.10597 2.28299
RightFoot  -18.4166 -0.137819 -0.21393
RightToes  -1.33073e-015 0 -3.6325e-017
Spine  3.63501 3.70911 9.8996
Spine1  2.75148 5.13103 -5.25117
HEad  -1.12592 42.4952 -11.2203
LeftShoulder1  0.702464 1.57731 -30.3745
LeftArm  -7.40033 22.5333 -19.4404
LeftForeArm  -10.1236 -13.6745 -11.6346
LeftHand  0.0916243 1.38978 -2.92529
RightShoulder  10.6594 14.5311 51.7175
RightArm  0.970361 5.81033 10.8847
RightForeArm  24.1458 -3.13433 16.2677
RightHand  -0.101488 4.04784 -1.51873
LeftUpLeg  -19.9149 2.53359 -9.60697
LeftLeg  6.66142 10.7502 -3.12629
LeftFoot  -0.491773 1.32979 -13.9178
LeftToes  -2.73175e-012 1.00346e-010 -4.28452e-011
590
root  2.42241 39.1313 -23.6897 -172.292 -51.6659 172.7
RightUpLeg  11.0254 -6.31061 0.691167
RightLeg  5.73769 -3.99761 2.53437
RightFoot  -18.7586 -0.152348 -0.392552
RightToes  -1.33073e-015 0 -3.6325e-017
Spine  3.41586 3.81908 9.52908
Spine1  2.91869 5.35422 -5.78933
HEad  -0.428312 38.9193 -10.0652
LeftShoulder1  0.697457 1.60996 -30.7416
LeftArm  -8.25915 24.2508 -21.5418
LeftForeArm  -5.66936 -10.5827 -13.2874
LeftHand  0.167877 0.440079 -4.03526
RightShoulder  10.9395 14.8101 52.2525
RightArm  2.86026 6.15039 11.5477
RightForeArm  23.3918 -2.27526 16.4631
RightHand  -0.0698306 4.16192 -1.12343
LeftUpLeg  -19.2965 -1.28551 -9.28775
LeftLeg  3.79679 13.9317 -4.02516
LeftFoot  -0.0710415 1.38636 -13.991
LeftToes  -2.73175e-012 1.00346e-010 -4.28452e-011
591
root  2.03388 38.9651 -24.4872 -172.583 -50.3255 173.143
RightUpLeg  12.0313 -6.21181 1.00606
RightLeg  6.24174 -2.63961 2.65315
RightFoot  -19.3499 -0.164969 -0.486558
RightToes  -1.33073e-015 0 -3.6325e-017
Spine  3.19728 3.92115 8.90869
Spine1  3.15818 5.59397 -6.3746
HEad  0.450831 35.0434 -8.5634
LeftShoulder1  0.748207 1.50043 -31.2667
LeftArm  -8.51139 24.8883 -23.0755
LeftForeArm  -0.845418 -6.39255 -15.0875
LeftHand  0.246988 -0.166376 -5.18119
RightShoulder  11.2148 15.0597 52.8276
RightArm  4.1127 5.98902 12.2838
RightForeArm  23.0186 -1.37498 16.4714
RightHand  -0.021447 4.23355 -0.536358
LeftUpLeg  -19.1474 -2.25425 -10.0474
LeftLeg  4.23895 11.1785 -3.7742
LeftFoot  1.24766 1.16163 -10.5783
LeftToes  -2.73175e-012 1.00346e-010 -4.28452e-011
